<svg class="svg-icon" style="width: 1em; height: 1em;vertical-align: middle;fill: currentColor;overflow: hidden;" viewBox="0 0 1024 1024" version="1.1" xmlns="http://www.w3.org/2000/svg"><path d="M512 179.2a332.8 332.8 0 1 1 0 665.6 332.8 332.8 0 0 1 0-665.6z m0 51.2a281.6 281.6 0 1 0 0 563.2 281.6 281.6 0 0 0 0-563.2z"  /><path d="M622.2848 669.7984a25.6512 25.6512 0 0 1-36.352 0L495.104 578.4576c-6.7584-6.8096-6.144-16.2816-6.144-30.72 0-14.4896-3.328-181.8112-3.328-181.8112 0-14.336 11.52-25.9584 25.6512-25.9584 14.1824 0 25.6512 11.6224 25.6512 25.9584v181.76c0 0.768 85.504 85.5552 85.504 85.5552a26.0096 26.0096 0 0 1-0.1536 36.5568z"  /></svg>