<?xml version="1.0" encoding="UTF-8"?><svg id="Layer_2" xmlns="http://www.w3.org/2000/svg" viewBox="0 0 106.5 99.56"><defs><style>.cls-1{fill:#000;stroke:#231f20;stroke-miterlimit:10;}</style></defs><g id="Layer_1-2"><path class="cls-1" d="M52.64,42.93c.09-.17.19-.34.28-.51.38-.73.72-1.47,1.03-2.23.07-.18.14-.36.21-.54.07-.2.15-.39.22-.59.08-.23.15-.47.23-.7.05-.15.1-.3.14-.45.07-.23.13-.47.19-.7l6.41-1.91v-8.62l-6.4-2.01s0,0,0,0c-.05-.2-.11-.41-.17-.61-.05-.19-.1-.37-.16-.56-.25-.78-.53-1.55-.85-2.3-.08-.18-.16-.35-.24-.53-.09-.19-.17-.39-.26-.58-.11-.22-.22-.43-.33-.65-.07-.14-.14-.29-.22-.43-.12-.21-.24-.42-.36-.63l3.18-5.89-6.09-6.09-5.95,3.1s0,0,0,0c-.18-.11-.37-.21-.56-.31-.17-.09-.33-.19-.5-.28-.73-.38-1.47-.72-2.23-1.03-.18-.07-.36-.14-.54-.2-.2-.07-.4-.15-.6-.22-.23-.08-.46-.15-.7-.23-.15-.05-.3-.1-.45-.14-.23-.07-.47-.13-.7-.19l-1.91-6.41h-8.62l-2.01,6.4s0,0,0,0c-.21.05-.41.12-.62.18-.18.05-.37.1-.55.16-.78.25-1.55.53-2.31.85-.18.08-.35.16-.53.24-.19.09-.39.17-.58.26-.22.11-.43.22-.65.33-.14.07-.29.14-.43.22-.21.12-.42.24-.63.36l-5.89-3.18-6.09,6.09,3.1,5.95s0,0,0,0c-.11.18-.21.37-.31.55-.09.17-.19.34-.28.51-.19.36-.37.72-.53,1.09,0,0,0,.01,0,.02,0,0,0,.01,0,.02-.17.37-.33.74-.48,1.11-.07.18-.14.36-.2.54-.07.2-.15.39-.22.59-.08.23-.15.47-.23.7-.05.15-.1.3-.14.45-.07.23-.13.47-.19.7l-6.41,1.91v8.62l6.4,2.01s0,0,0,0c.05.21.12.41.17.61.05.18.1.37.16.55.12.39.25.77.39,1.15,0,0,0,0,0,.01,0,0,0,0,0,.01.14.38.29.75.45,1.13.08.18.16.35.24.53.09.19.17.38.26.57.11.22.22.43.33.65.07.14.14.28.22.42.12.21.24.42.36.63l-3.18,5.89,6.09,6.09,5.95-3.1s0,0,0,0c.18.1.36.2.54.3.17.1.34.19.52.29.35.18.7.35,1.05.52.02,0,.03.02.05.02.02,0,.03.01.05.02.36.16.72.32,1.08.46.18.07.37.14.55.21.2.07.39.15.59.22.23.08.47.15.7.23.15.05.3.1.44.14.23.07.47.13.7.19l1.91,6.41h8.62l2.01-6.4s0,0,0,0c.2-.05.4-.11.61-.17.19-.05.37-.1.56-.16.78-.25,1.55-.53,2.3-.85.18-.08.35-.16.53-.24.19-.09.38-.17.57-.26.22-.11.43-.22.65-.33.14-.07.28-.14.42-.22.21-.12.42-.24.63-.36l5.89,3.18,6.09-6.09-3.1-5.95s0,0,0,0c.11-.18.2-.36.3-.55ZM30.92,48.74c-9.84,0-17.82-7.98-17.82-17.82s7.98-17.82,17.82-17.82,17.82,7.98,17.82,17.82-7.98,17.82-17.82,17.82Z"/><path class="cls-1" d="M93.82,84.95c.13-.15.26-.29.39-.44.53-.62,1.03-1.27,1.5-1.94.11-.16.21-.32.32-.49.12-.17.23-.35.35-.53.13-.21.25-.42.38-.63.08-.13.16-.27.24-.4.12-.21.23-.43.34-.64l6.67-.44,1.92-8.4-5.79-3.39s0,0,0,0c0-.21-.02-.42-.03-.63-.01-.19-.02-.39-.03-.58-.06-.82-.17-1.63-.31-2.44-.03-.19-.08-.38-.11-.57-.04-.21-.08-.42-.13-.62-.05-.24-.12-.47-.18-.7-.04-.15-.08-.31-.12-.46-.07-.23-.14-.46-.21-.69l4.41-5.03-4.58-7.3-6.49,1.7s0,0,0,0c-.16-.15-.32-.29-.48-.43-.14-.13-.28-.26-.43-.38-.62-.53-1.27-1.03-1.94-1.5-.16-.11-.32-.21-.48-.32-.18-.12-.35-.24-.53-.35-.21-.13-.42-.25-.63-.38-.14-.08-.27-.16-.41-.24-.21-.12-.43-.23-.64-.34l-.44-6.67-8.4-1.92-3.39,5.79s0,0,0,0c-.21,0-.43.02-.64.03-.19.01-.38.02-.57.03-.82.06-1.63.17-2.44.31-.19.03-.38.08-.57.11-.21.04-.42.08-.62.13-.24.05-.47.12-.7.18-.15.04-.31.08-.46.12-.23.07-.46.14-.69.21l-5.03-4.41-7.3,4.58,1.7,6.49s0,0,0,0c-.14.15-.28.31-.42.47-.13.14-.26.28-.39.43-.26.31-.52.62-.76.94,0,0,0,0-.01.01,0,0,0,0,0,.01-.25.32-.48.65-.72.98-.11.16-.21.32-.32.48-.12.18-.24.35-.35.53-.13.21-.25.42-.38.63-.08.13-.16.27-.24.4-.12.21-.23.43-.34.64l-6.67.44-1.92,8.4,5.79,3.39s0,0,0,0c0,.21.02.42.03.64.01.19.02.38.03.57.03.4.07.81.12,1.21,0,0,0,0,0,.01,0,0,0,.01,0,.02.05.4.11.8.19,1.2.03.19.08.38.12.57.04.21.08.41.13.61.05.24.12.47.18.71.04.15.08.31.12.46.07.23.14.46.21.7l-4.41,5.03,4.58,7.3,6.49-1.7s0,0,0,0c.15.14.31.28.46.41.15.13.29.27.44.39.3.25.6.5.91.74.01.01.03.02.04.04.01.01.03.02.04.03.31.24.63.47.95.69.16.11.33.22.49.32.17.12.35.23.52.34.21.13.42.25.63.38.13.08.27.16.4.24.21.12.43.23.64.34l.44,6.67,8.4,1.92,3.39-5.79s0,0,0,0c.21,0,.42-.02.63-.03.19-.01.39-.02.58-.03.82-.06,1.63-.17,2.43-.31.19-.03.38-.08.57-.12.21-.04.41-.08.61-.13.24-.05.47-.12.71-.18.15-.04.31-.08.46-.12.23-.07.46-.14.7-.21l5.03,4.41,7.3-4.58-1.7-6.49s0,0,0,0c.14-.15.28-.31.42-.47ZM71.35,85.76c-9.59-2.2-15.59-11.75-13.39-21.35,2.2-9.59,11.75-15.59,21.35-13.39,9.59,2.2,15.59,11.75,13.39,21.35-2.2,9.59-11.75,15.59-21.35,13.39Z"/></g></svg>